<svg id="Capa_1" data-name="Capa 1" xmlns="http://www.w3.org/2000/svg" viewBox="0 0 187.44 187.44"><defs><style>.cls-1{fill:#fff;}</style></defs><path class="cls-1" d="M101.63,187.44H85.81a15.1,15.1,0,0,0-2.32-.71c-38.72-5.34-64.83-26.52-78.36-63C2.52,116.69,1.66,109,0,101.63V85.81a15.1,15.1,0,0,0,.71-2.32c5.34-38.72,26.52-64.83,63-78.36,7-2.61,14.71-3.47,22.09-5.13h15.82A15.1,15.1,0,0,0,104,.71c38.72,5.34,64.83,26.52,78.36,63,2.61,7,3.47,14.71,5.13,22.09v15.82a15.1,15.1,0,0,0-.71,2.32c-5.34,38.72-26.52,64.83-63,78.36C116.69,184.92,109,185.78,101.63,187.44Zm2.51-40c10.6,0,20.71-.09,30.81.05,3.81.05,5.1-1.51,5.06-5.23-.13-15.13,0-30.26-.17-45.38a8.65,8.65,0,0,0-2.66-5.47C130.39,85,123.37,79,116.41,72.78c-7.33-6.49-14.68-13-22.09-19.51C78.42,66.56,62.77,79.61,47.2,92.76A4.56,4.56,0,0,0,45.89,96c-.09,15.82,0,31.64-.1,47.46,0,3,1.14,4.26,4.19,4.2,6-.13,11.93-.07,17.9-.07H81.76c0-9,.06-17.48,0-25.92,0-3.83,1.54-5.66,5.47-5.51,3.6.13,7.21,0,10.82,0,5.08.09,6.1,1.13,6.11,6.11C104.16,130.44,104.14,138.62,104.14,147.42ZM94.78,31.29,28.17,90c3.76,4.32,7.43,4.59,12.11.82,5.41-4.35,10.65-8.9,15.95-13.38L94.77,44.81l4.49,4C114,62,128.78,75.33,143.66,88.46a25.34,25.34,0,0,0,7.45,4.33c3.31,1.29,6.12.13,8.13-3.13ZM130.84,45c0,4.13,0,7.84,0,11.55,0,1.35-.25,3.24.5,3.94,3.84,3.6,8,6.89,12.44,10.67V45Z"/></svg>