<svg id="Capa_1" data-name="Capa 1" xmlns="http://www.w3.org/2000/svg" viewBox="0 0 560 800.55"><defs><style>.cls-1{font-size:108.73px;}.cls-1,.cls-2,.cls-4{fill:#fff;}.cls-1,.cls-2{font-family:Magical;}.cls-2{font-size:234.44px;}.cls-3,.cls-6{fill:#13a651;}.cls-5{fill:none;}.cls-5,.cls-6{stroke:#fff;stroke-miterlimit:10;stroke-width:15.76px;}</style></defs><text class="cls-1" transform="translate(149.37 523.78)">Fundación </text><text class="cls-2" transform="translate(0 681.16)">Reflorece</text><text class="cls-1" transform="translate(149.37 523.78)">Fundación </text><text class="cls-2" transform="translate(0 681.16)">Reflorece</text><path class="cls-3" d="M285.75,0S180.13,57.7,180.13,209.83c0,153.49,105.17,194.77,105.17,194.77s98.46-36,106.84-194.7C392.14,61.93,285.75,0,285.75,0"/><path class="cls-4" d="M285.75,0a170.82,170.82,0,0,0-23.32,18.58,223.67,223.67,0,0,0-20.31,21.69,249.16,249.16,0,0,0-17.33,24,226.25,226.25,0,0,0-14.1,25.91,248.9,248.9,0,0,0-18.47,55.69,296.16,296.16,0,0,0-5.84,58.34l0,3.67v1.83l.06,1.84.27,7.34c.08,4.89.62,9.75,1,14.62.11,1.21.18,2.43.32,3.64l.44,3.63.89,7.26c.29,2.41.78,4.8,1.16,7.2l.61,3.59c.2,1.2.39,2.4.67,3.58,3.9,19,9.72,37.6,18.29,54.84a201,201,0,0,0,14.55,24.81,179.07,179.07,0,0,0,18.19,22.16,170.73,170.73,0,0,0,21.47,18.86c3.84,2.8,7.76,5.49,11.82,7.9q3,1.81,6.13,3.45c1,.52,2.07,1.07,3.09,1.55.52.25,1,.49,1.53.71l.74.33.61.26-5.58-.07.58-.23.73-.31c.5-.21,1-.44,1.52-.68,1-.46,2-1,3.07-1.5,2-1.06,4.08-2.18,6.09-3.39a129.14,129.14,0,0,0,11.72-7.89,157.62,157.62,0,0,0,21.13-19.08,179.72,179.72,0,0,0,17.8-22.44c2.72-3.95,5.17-8.08,7.62-12.21l3.46-6.33c1.17-2.1,2.15-4.3,3.25-6.45l1.59-3.24,1.46-3.31c.95-2.22,2-4.4,2.87-6.65l2.63-6.76.66-1.69.59-1.72,1.17-3.44,1.17-3.44.58-1.72.51-1.75,2.06-7c.73-2.31,1.25-4.7,1.85-7.05s1.21-4.71,1.75-7.08l1.47-7.16c.5-2.39,1-4.77,1.37-7.19.75-4.82,1.67-9.62,2.2-14.49l.93-7.28.23-1.82.16-1.81.32-3.62.64-7.24c0-.61.13-1.21.13-1.81v-1.81l0-3.62c-.13-38.83-8.07-78.19-25.28-113.51a253.32,253.32,0,0,0-14.29-25.78A263.43,263.43,0,0,0,328.9,40.78,235.93,235.93,0,0,0,308.74,19a185.28,185.28,0,0,0-23-19,132.45,132.45,0,0,1,12.64,8.06c4.07,2.91,8.06,5.95,11.93,9.14a235,235,0,0,1,21.87,20.71,237.59,237.59,0,0,1,19.15,23.38A259,259,0,0,1,367.46,87L371,93.7l3.27,6.87c1.12,2.27,2.09,4.61,3.08,7l1.48,3.51c.5,1.16,1,2.33,1.43,3.53l2.66,7.13.67,1.79.59,1.81,1.18,3.62,1.17,3.63.59,1.81.51,1.84,2,7.35c.73,2.44,1.2,4.94,1.79,7.41s1.17,5,1.63,7.46l1.32,7.51.66,3.76.5,3.79,1,7.57c.19,1.26.29,2.52.39,3.79l.32,3.8.62,7.61.28,7.72.15,3.86.06,1.93c0,.64-.05,1.28-.07,1.92l-.43,7.67-.22,3.84-.12,1.92-.18,1.9-.72,7.58-.37,3.79c-.12,1.27-.34,2.52-.51,3.78l-1.06,7.56c-.32,2.52-.8,5-1.26,7.53L392,264.77c-.52,2.49-1.12,5-1.67,7.47s-1.08,5-1.79,7.45l-2,7.41L386,289l-.59,1.83-1.18,3.65-1.18,3.66-.59,1.83-.67,1.81L379.15,309c-.91,2.4-2,4.75-2.95,7.13l-1.5,3.55-1.65,3.5c-1.13,2.31-2.16,4.68-3.38,6.95L366,336.92c-2.59,4.47-5.19,8.94-8.08,13.24a194.64,194.64,0,0,1-19.11,24.54c-.88,1-1.75,1.93-2.65,2.87l-2.76,2.76c-1.81,1.87-3.75,3.62-5.66,5.4s-3.93,3.43-5.89,5.15-4.05,3.32-6.17,4.86a148,148,0,0,1-13.06,8.84c-2.26,1.37-4.59,2.66-7,3.9-1.21.61-2.39,1.22-3.65,1.79-.62.29-1.24.58-1.9.86-.33.14-.63.28-1,.42L288,412l-2.8,1.11-2.78-1.17-1.11-.47-1-.43c-.64-.29-1.26-.58-1.86-.88-1.24-.58-2.41-1.2-3.6-1.81-2.35-1.25-4.65-2.56-6.9-3.91-4.52-2.71-8.83-5.68-13-8.78A179.8,179.8,0,0,1,231.56,375,195.24,195.24,0,0,1,212,350.7a205,205,0,0,1-15.4-27A231.06,231.06,0,0,1,178.13,265a291.74,291.74,0,0,1-4-61l.28-7.62c.13-2.54.39-5.08.58-7.61s.37-5.07.65-7.6l1-7.58c.53-5.06,1.53-10.06,2.36-15.08.37-2.51,1-5,1.54-7.47s1.09-5,1.7-7.44l2-7.37,1-3.68,1.16-3.63,2.32-7.26,2.64-7.16c.45-1.19.86-2.39,1.33-3.57l1.47-3.51c1-2.34,1.92-4.71,3-7l3.23-6.89c1-2.31,2.31-4.52,3.48-6.77a231.27,231.27,0,0,1,35-49.32,222.07,222.07,0,0,1,22-20.61c3.92-3.14,7.94-6.15,12.07-9A123.38,123.38,0,0,1,285.75,0Z"/><path class="cls-4" d="M286.25,70.9A41.75,41.75,0,0,1,321.6,90.57a40.38,40.38,0,0,1,5.61,14.66,41.32,41.32,0,0,1-.62,16.71,40.47,40.47,0,0,1-7.9,15.72c-1,1.13-2,2.26-3.05,3.36s-2.27,2-3.45,3-2.48,1.8-3.77,2.64-2.68,1.54-4.08,2.21-2.85,1.23-4.32,1.76-3,.94-4.49,1.29-3.07.58-4.62.76-3.11.21-4.66.26-3.11-.15-4.66-.26-3.08-.5-4.61-.78-3-.86-4.49-1.31-2.89-1.15-4.32-1.75a41.4,41.4,0,0,1-14.31-11.23,40.83,40.83,0,0,1-7.88-15.7,41.42,41.42,0,0,1-.62-16.69,40.42,40.42,0,0,1,5.58-14.64,42.17,42.17,0,0,1,9.8-10.9A41.44,41.44,0,0,1,286.25,70.9Zm0,1.58a32.38,32.38,0,0,0-22.63,55.42,32.1,32.1,0,0,0,45.25,0,32.35,32.35,0,0,0-22.62-55.41Z"/><path class="cls-4" d="M193.2,122.8a3.27,3.27,0,0,1,.39,1.75,10,10,0,0,1-.21,1.82c-.23,1.19-.57,2.34-.91,3.48-.68,2.29-1.52,4.51-2.08,6.67-.13.53-.25,1.06-.33,1.56a4.05,4.05,0,0,0,0,1.23c0,.13.08.19.09.1a.51.51,0,0,0,0-.09l0,0,.08.08.3.31,1.19,1.27c.77.86,1.6,1.66,2.4,2.48s1.63,1.61,2.44,2.42a240.66,240.66,0,0,0,20.89,17.53c7.27,5.59,14.75,11.22,22,17.41a162.83,162.83,0,0,1,20.47,20.62c1.55,1.9,3,3.86,4.48,5.83s2.79,4,4.13,6.08c.62,1,1.24,2,1.83,3s1.3,1.87,2,3c1.41,2.15,2.69,4.35,3.86,6.58a102.42,102.42,0,0,1,9.32,28,151.62,151.62,0,0,1,2.44,28.65q0,7.14-.67,14.23a129.35,129.35,0,0,1-2,14A264,264,0,0,0,282.47,283a185.26,185.26,0,0,0-6.11-26.8,115.56,115.56,0,0,0-4.69-12.6,85.61,85.61,0,0,0-6.12-11.63c-1.15-1.82-2.37-3.59-3.67-5.27-.6-.8-1.4-1.77-2.14-2.65s-1.49-1.82-2.22-2.74l-2.18-2.55-2.23-2.51c-1.48-1.67-3-3.33-4.54-4.93-6.11-6.52-12.69-12.63-19.49-18.79s-13.83-12.35-20.56-19.2-13.08-14.42-17.91-23c-1.21-2.12-2.33-4.3-3.33-6.52l-.73-1.67-.18-.42,0-.1-.13-.25a2.47,2.47,0,0,1-.19-.49,4.23,4.23,0,0,1-.17-1.62,8.3,8.3,0,0,1,.54-2.22,16,16,0,0,1,.8-1.77c1.14-2.21,2.41-4.17,3.63-6.16.6-1,1.18-2,1.67-3a11.88,11.88,0,0,0,.62-1.59A3,3,0,0,0,193.2,122.8Z"/><path class="cls-3" d="M11.14,131.47S136,126.1,213.54,216C300,307.79,285.3,404.6,285.3,404.6s-103,52.49-186.73-43.53c-53.39-71.7-24-133.8-41.73-172.6C36.47,137.37,11.14,131.47,11.14,131.47Z"/><path class="cls-4" d="M11.14,131.47c18.08-1.22,36.32,0,54.35,2.52a297,297,0,0,1,53.25,12.78,259.21,259.21,0,0,1,49.91,23.46A222.53,222.53,0,0,1,212,204.93l2.42,2.52,2.3,2.51c1.52,1.7,3.09,3.31,4.64,4.94s3.12,3.38,4.68,5.06,3.07,3.46,4.58,5.22c6,7,11.71,14.33,17,21.92a265.67,265.67,0,0,1,27.06,48.64,250,250,0,0,1,15.92,53.51,230.07,230.07,0,0,1,3.19,27.88c.25,4.68.35,9.38.26,14.11q-.07,3.54-.28,7.12c-.08,1.19-.17,2.39-.28,3.6l-.19,1.83-.11.94-.14,1.06-.54,4-3.67,1.83c-.71.35-1.17.56-1.73.82l-1.61.72c-1.06.47-2.12.91-3.18,1.34-2.12.85-4.24,1.64-6.37,2.39-4.27,1.5-8.58,2.81-12.93,4a173.91,173.91,0,0,1-26.51,4.86,160.66,160.66,0,0,1-53.78-3.34,154.53,154.53,0,0,1-49.33-21.5,187.68,187.68,0,0,1-39.65-35.62l-.21-.25-.1-.13a181.77,181.77,0,0,1-17-28.34,166.2,166.2,0,0,1-11.26-31.11A186.48,186.48,0,0,1,60.12,273c-.81-10.87-.82-21.69-.74-32.36s.19-21.24-.88-31.49a73.81,73.81,0,0,0-3-14.92c-.19-.6-.4-1.19-.62-1.78s-.44-1.18-.69-1.79c-.51-1.19-.94-2.49-1.42-3.73s-.93-2.49-1.42-3.7-1-2.45-1.49-3.65A137.91,137.91,0,0,0,34.69,152c-1.55-2.12-3.18-4.18-4.92-6.15a71.53,71.53,0,0,0-5.47-5.68,53.49,53.49,0,0,0-6.17-4.95A31.57,31.57,0,0,0,11.14,131.47Zm0,0a30.17,30.17,0,0,1,7.46,3,54.69,54.69,0,0,1,6.79,4.4A77.75,77.75,0,0,1,37.19,150a130.55,130.55,0,0,1,17.89,27.09c.64,1.2,1.21,2.43,1.81,3.64s1.17,2.44,1.71,3.65L60.27,188c.29.61.57,1.24.84,1.9s.55,1.31.79,2A81.52,81.52,0,0,1,66,208.11a159.26,159.26,0,0,1,1.57,16.3c.29,5.4.44,10.76.6,16.09.31,10.65.7,21.18,1.85,31.56a184.5,184.5,0,0,0,5.83,30.51,162.9,162.9,0,0,0,27.83,54.7l-.31-.38a202,202,0,0,0,17.81,17.44c3.12,2.73,6.37,5.28,9.66,7.77s6.7,4.81,10.21,7c1.72,1.12,3.51,2.12,5.27,3.18s3.57,2,5.41,2.93c3.61,1.93,7.34,3.62,11.1,5.22a137.63,137.63,0,0,0,23.32,7.38,146.93,146.93,0,0,0,48.74,2.48A164.27,164.27,0,0,0,259,405.71c3.95-1.06,7.87-2.26,11.72-3.63q2.88-1,5.69-2.16c.93-.38,1.86-.76,2.76-1.17l1.34-.6,1.17-.56-4.21,5.83.17-1.36.15-1.55.24-3.16c.14-2.12.23-4.27.28-6.43.09-4.31,0-8.66-.19-13a217,217,0,0,0-2.9-26,238.1,238.1,0,0,0-14.44-50.41A259.32,259.32,0,0,0,236.07,255c-4.89-7.33-10.17-14.41-15.74-21.27l-4.24-5.1c-1.46-1.67-2.84-3.34-4.37-5s-3.05-3.37-4.5-5.08L205,216l-2.21-2.45c-23.61-26-53.8-46.05-86.86-59.36q-12.37-5.1-25.24-9c-8.56-2.63-17.26-4.82-26-6.77s-17.65-3.48-26.59-4.64A253,253,0,0,0,11.14,131.47Z"/><path class="cls-5" d="M65,271.19s11.56,41.47,60.62,35.44c29.18-5.28,60.44-8,94.76,9.51,55.57,29.88,65,88.46,65,88.46S219.37,440,148.69,401.75C65,354.74,65,271.19,65,271.19Z"/><path class="cls-3" d="M560,131.18s-124.84-5.37-202.4,84.56c-86.51,91.76-71.76,188.57-71.76,188.57s103,52.49,186.73-43.53c53.38-71.7,24-133.8,41.73-172.59C534.67,137.08,560,131.18,560,131.18Z"/><path class="cls-4" d="M560,131.18a252.81,252.81,0,0,0-27,2.3q-13.41,1.74-26.59,4.64c-8.77,1.95-17.47,4.14-26,6.77s-17,5.61-25.23,9c-33.06,13.31-63.26,33.33-86.86,59.37l-2.21,2.44-2.2,2.56c-1.44,1.72-3,3.39-4.49,5.08s-2.91,3.36-4.38,5l-4.24,5.09c-5.57,6.86-10.84,13.94-15.73,21.27a259.32,259.32,0,0,0-24.75,46.47,238.72,238.72,0,0,0-14.45,50.41,217.18,217.18,0,0,0-2.89,26c-.21,4.34-.29,8.69-.19,13q.07,3.24.27,6.44l.25,3.16.15,1.54.16,1.36-4.2-5.83,1.17.56,1.34.61c.9.4,1.83.78,2.76,1.17q2.81,1.13,5.69,2.16c3.84,1.36,7.76,2.56,11.72,3.62A164.05,164.05,0,0,0,336.26,410,147.46,147.46,0,0,0,385,407.49a138.46,138.46,0,0,0,23.31-7.39c3.76-1.6,7.49-3.29,11.11-5.22,1.83-.91,3.6-1.95,5.41-2.93s3.55-2.05,5.27-3.18c3.5-2.15,6.86-4.54,10.2-7s6.55-5,9.67-7.77a200.57,200.57,0,0,0,17.8-17.44l-.31.38a162.75,162.75,0,0,0,27.84-54.7,184.48,184.48,0,0,0,5.82-30.51c1.15-10.38,1.55-20.91,1.86-31.56.16-5.33.31-10.69.59-16.09a162.13,162.13,0,0,1,1.57-16.3,80.87,80.87,0,0,1,4.1-16.2c.24-.66.51-1.32.79-2s.55-1.29.83-1.9l1.67-3.66c.54-1.21,1.12-2.42,1.72-3.64s1.17-2.45,1.8-3.65A131,131,0,0,1,534,149.71a77.19,77.19,0,0,1,11.8-11.13,54.77,54.77,0,0,1,6.79-4.41A30,30,0,0,1,560,131.18Zm0,0a31.35,31.35,0,0,0-7,3.75,53.7,53.7,0,0,0-6.17,4.95,69.93,69.93,0,0,0-5.47,5.69c-1.74,2-3.38,4-4.92,6.15a137.36,137.36,0,0,0-15.13,27.54c-.53,1.19-1,2.42-1.49,3.64s-1,2.44-1.43,3.7-.91,2.54-1.41,3.73c-.26.61-.49,1.21-.7,1.79s-.42,1.18-.61,1.78a73.81,73.81,0,0,0-3,14.92c-1.07,10.26-.94,20.83-.88,31.49s.06,21.49-.74,32.36A186.33,186.33,0,0,1,506,305.13a166.91,166.91,0,0,1-11.26,31.11,181.77,181.77,0,0,1-17,28.34l-.1.13-.21.25a187.68,187.68,0,0,1-39.65,35.62,154.53,154.53,0,0,1-49.33,21.5,160.66,160.66,0,0,1-53.78,3.34,174,174,0,0,1-26.52-4.86c-4.35-1.15-8.65-2.46-12.92-4-2.13-.75-4.26-1.54-6.37-2.39-1.06-.43-2.12-.87-3.18-1.34l-1.61-.72c-.56-.25-1-.47-1.73-.82l-3.67-1.83-.54-4-.14-1.06-.12-.94-.18-1.83c-.12-1.21-.21-2.41-.28-3.6q-.22-3.58-.28-7.12c-.09-4.73,0-9.43.25-14.11a232.33,232.33,0,0,1,3.2-27.88,250,250,0,0,1,15.92-53.51,265.63,265.63,0,0,1,27.05-48.64c5.33-7.58,11-14.89,17-21.92,1.51-1.76,3-3.49,4.57-5.21s3.13-3.45,4.68-5.07,3.12-3.24,4.64-4.93l2.31-2.52,2.42-2.52a222.76,222.76,0,0,1,43.34-34.7,258.94,258.94,0,0,1,49.92-23.45,295.8,295.8,0,0,1,53.25-12.79C523.68,131.19,541.91,130,560,131.18Z"/><path class="cls-6" d="M506.19,270.9s-11.56,41.47-60.62,35.44c-29.19-5.28-60.44-8-94.76,9.51-55.57,29.88-65,88.46-65,88.46s65.92,35.35,136.6-2.85C506.19,354.45,506.19,270.9,506.19,270.9Z"/><path class="cls-4" d="M379.48,117.93a4,4,0,0,0,0,1.75,16.48,16.48,0,0,0,.44,1.71c.33,1.13.74,2.25,1.17,3.36.85,2.22,1.8,4.42,2.65,6.68.43,1.13.86,2.27,1.24,3.46a16.49,16.49,0,0,1,.85,4,5.11,5.11,0,0,1-.12,1.43,3.54,3.54,0,0,1-.38,1l-.18.43-.73,1.71c-.49,1.15-1.06,2.25-1.6,3.37-4.48,8.92-10.74,16.92-17.47,24.05s-13.94,13.57-20.9,19.87-13.72,12.51-20.06,19.07c-1.55,1.67-3.16,3.29-4.67,5-.79.83-1.51,1.71-2.27,2.56s-1.51,1.7-2.25,2.57l-1.12,1.3-1.12,1.4-2.28,2.77c-.4.47-.73.9-1.05,1.33s-.66.85-1,1.3c-.65.87-1.26,1.77-1.87,2.69a100,100,0,0,0-11.32,24.49,183.43,183.43,0,0,0-6.34,27.28,258.65,258.65,0,0,0-2.91,28.4,127.1,127.1,0,0,1-2-14.32c-.42-4.81-.65-9.65-.65-14.5a149.67,149.67,0,0,1,2.67-29.22,99.24,99.24,0,0,1,9.95-28.48c.62-1.13,1.27-2.25,2-3.36q.51-.83,1-1.65c.36-.55.72-1.1,1.05-1.57.72-1,1.28-2,1.91-3l.95-1.53,1-1.56q2-3.15,4.31-6.14c1.51-2,3-4,4.67-5.87a170.17,170.17,0,0,1,21.15-20.65c7.46-6.23,15.11-11.85,22.46-17.57a202,202,0,0,0,21-18.23c.82-.84,1.66-1.67,2.44-2.55l1.22-1.29.31-.32s-.06.17,0,.14a.75.75,0,0,0,.1-.34,14.44,14.44,0,0,0-.17-3.11c-.16-1.14-.37-2.3-.59-3.46-.46-2.33-.93-4.69-1.35-7.07-.21-1.19-.4-2.39-.51-3.6a14,14,0,0,1-.06-1.83A4,4,0,0,1,379.48,117.93Z"/></svg>