<svg id="Capa_1" data-name="Capa 1" xmlns="http://www.w3.org/2000/svg" viewBox="0 0 247 176.36"><defs><style>.cls-1{fill:#fff;}</style></defs><path class="cls-1" d="M123.2,0q46.54,0,93.07,0c19,0,30.68,11.78,30.7,30.85q.06,57.43,0,114.86c0,19-11.81,30.6-30.94,30.61q-92.66,0-185.3,0c-19,0-30.68-11.8-30.7-30.85Q0,88.06,0,30.62C.06,11.66,11.83.05,31,0Q77.09,0,123.2,0Zm-111,21.27c-.36,5.34-.81,8.93-.81,12.52q-.08,54.49,0,109c0,16,6.18,22,22.42,22q89.7,0,179.4,0c16.29,0,22.35-5.93,22.38-22q.09-54.49,0-109c0-3.73-.64-7.46-1.07-12-3.58,1.84-6,3-8.43,4.35-31.95,17.71-64,35.3-95.75,53.28-5.08,2.88-8.75,2.8-13.72-.07C99,69.09,81.07,59.41,63.26,49.54,46.74,40.38,30.21,31.24,12.23,21.28Zm11.65-9-.35,1.83C55.66,32,87.75,50,120,67.5c2.22,1.21,6.5.4,9-1C158.9,50.2,188.6,33.6,218.33,17c1.81-1,3.48-2.28,7.13-4.7Z"/></svg>