<svg id="Capa_1" data-name="Capa 1" xmlns="http://www.w3.org/2000/svg" viewBox="0 0 373.39 393.53"><defs><style>.cls-1{fill:#fff;}</style></defs><path class="cls-1" d="M244.5,393.53a125.81,125.81,0,0,1-39.11-5.92c-10.63-3.4-20.44-8.49-29.95-14.29a345.41,345.41,0,0,1-74.93-62.12C85.17,294.48,70.35,277.31,56.91,259c-15.08-20.54-28.64-42-39.38-65.17-7.45-16.08-13.46-32.64-16.15-50.27C-2.11,120.75.84,99,12.27,78.76,19.66,65.67,29.69,55,43.44,48.39a86.72,86.72,0,0,1,41.75-8.91c1.57.07,3.14.14,4.71.25,9,.65,14.64,5.92,18.63,13.48,3,5.62,4.44,11.74,5.81,17.86,4.11,18.43,8.62,36.78,11.46,55.47.31,2,.61,4.08.94,6.11.9,5.43-1.44,9.5-5.32,13-4.29,3.84-9.42,6.13-14.64,8.32-4.21,1.76-8.36,3.65-12.51,5.53a22.73,22.73,0,0,0-3.06,1.77c-3,2-4,4.64-3.55,8.22,1,8.08,4.18,15.38,7.52,22.67a230.4,230.4,0,0,0,33.5,53.31A214.87,214.87,0,0,0,168.38,282c5.56,4,10.92,8.2,16.62,11.95a47.52,47.52,0,0,0,9.19,4.19c3.89,1.51,7.29.36,10.27-2.41a42,42,0,0,0,7.63-10.4c3.51-6.14,7.61-11.77,13.25-16.19,4.18-3.27,8.56-4,13.67-2.41,10.54,3.21,20.66,7.44,30.85,11.55,13.66,5.51,27.17,11.33,40.06,18.49a70.15,70.15,0,0,1,9.37,6.31c3.32,2.63,4.81,6.33,5,10.59a66.57,66.57,0,0,1-3.84,24.43,85.74,85.74,0,0,1-29.18,40.69,68.27,68.27,0,0,1-35.11,14C251.59,393.18,247,393.36,244.5,393.53Z"/><path class="cls-1" d="M372.87,201.85c0,3.49.05,7,0,10.46-.11,5.52-4.15,9.56-9.27,9.37s-8.86-4.38-8.66-9.79a195.9,195.9,0,0,0-8.33-63.66,183.52,183.52,0,0,0-39-70.23c-27-30.34-60.63-49.65-100-59.18-1.53-.37-3.06-.69-4.6-1-5.2-1.05-8.47-5.69-7.45-10.58a9,9,0,0,1,11-7,212.68,212.68,0,0,1,51.19,17.65A204.91,204.91,0,0,1,315.1,59.61a202.35,202.35,0,0,1,42.22,65.06,205.26,205.26,0,0,1,13.47,50.64c1.14,8.8,1.75,17.66,2.6,26.5Z"/><path class="cls-1" d="M320.69,195.22c0,1.91,0,3.83,0,5.74a9,9,0,0,1-9.06,9.09c-5.1-.05-8.87-4.13-8.9-9.39-.19-35-11.32-65.82-35-91.72-18.13-19.81-40.58-32.55-66.6-39-5.07-1.27-7.93-4.41-8-9a9,9,0,0,1,11-8.75,149.65,149.65,0,0,1,34.47,12.6,148.6,148.6,0,0,1,77.13,96.12A161.07,161.07,0,0,1,320.69,195.22Z"/><path class="cls-1" d="M267.49,189.58a35.81,35.81,0,0,1-.31,5,8.94,8.94,0,0,1-17.7-2,68.6,68.6,0,0,0-3.31-22.77C238.93,148,224.22,133.53,202.62,126c-2.3-.8-4.71-1.33-7.08-2a9,9,0,0,1-6.83-8.71,8.75,8.75,0,0,1,6.62-8.54,10.26,10.26,0,0,1,4.77-.05c32,8.06,53.44,27.57,63.63,59.09A82.75,82.75,0,0,1,267.49,189.58Z"/></svg>