<svg id="Capa_1" data-name="Capa 1" xmlns="http://www.w3.org/2000/svg" viewBox="0 0 147 233.74"><defs><style>.cls-1{fill:#fff;}</style></defs><path class="cls-1" d="M124.43,202.1c-25.5-30.73-51.62-60.19-67-96.88-11.67-27.8-8-54.36,11.91-77.23C89,5.36,114.55-2.43,143.44,5.41,173.24,13.48,191,34,196.66,64.25a68,68,0,0,1-4.39,39.17c-12.2,29.26-31.22,54.07-51,78.37C135.82,188.43,130.31,195,124.43,202.1ZM160.9,76.21a36.51,36.51,0,1,0-36.82,36.17A36.41,36.41,0,0,0,160.9,76.21Z" transform="translate(-50.8 -2.45)"/><path class="cls-1" d="M146.61,187.89c2.7-.87,5.81-3.07,8-2.38,9.48,3,19.36,5.68,27.84,10.62,12.57,7.32,12.26,18.44.17,26.57-11.71,7.89-25.19,10.9-38.95,12.32-22.22,2.29-44.33,1.73-65.5-6.44a55.23,55.23,0,0,1-15.52-9.12c-7.12-6-7.14-13.71-.47-20,9.37-8.85,21.33-12.17,33.63-14.12,1.94-.3,4.32,2.18,7.28,3.8-4.74,2.7-8.41,4.28-11.46,6.66-5,3.88-4.83,8.09-.19,12.33,12.09,11,53.42,11.15,66,.19,4.77-4.17,4.79-9-.4-12.89-2.95-2.18-6.47-3.59-9.73-5.35Z" transform="translate(-50.8 -2.45)"/></svg>