<svg id="Capa_1" data-name="Capa 1" xmlns="http://www.w3.org/2000/svg" viewBox="0 0 235.86 236.94"><defs><style>.cls-1{fill:#fff;}.cls-2{fill:#f0f0f0;}</style></defs><path class="cls-1" d="M125.1,236c-1.55,0-2.72.05-3.89,0-2-.11-4-.23-6-.39-1.76-.13-3.5-.34-5.25-.52s-3.34-.42-5-.71a113.27,113.27,0,0,1-11.07-2.45c-3.54-1-7-2.1-10.49-3.4s-6.61-2.7-9.84-4.2a29,29,0,0,1-3.8-2,2.76,2.76,0,0,0-2.44-.38c-5.27,1.47-10.58,2.76-15.85,4.23-3.46,1-7,1.76-10.46,2.67-4.53,1.19-9,2.42-13.58,3.62l-13.71,3.58-6.18,1.62a5.35,5.35,0,0,1-.55.11c-.44,0-.64-.21-.54-.63.17-.73.37-1.45.57-2.17l2.31-8.35c.44-1.59.87-3.18,1.31-4.77q1.26-4.65,2.54-9.32c1.15-4.19,2.31-8.38,3.45-12.57.76-2.83,1.6-5.62,2.26-8.47.32-1.35.81-2.65,1.15-4q.86-3.31,1.74-6.62a16.74,16.74,0,0,1,.8-2.58,2.3,2.3,0,0,0-.22-2.22,94,94,0,0,1-4.55-8.81c-1.3-2.8-2.46-5.66-3.53-8.54-.86-2.32-1.66-4.66-2.29-7.07-.42-1.62-1-3.23-1.34-4.87C9.93,143.89,9.21,141,8.69,138c-.26-1.46-.39-3-.57-4.45-.22-1.74-.29-3.5-.59-5.23a1.27,1.27,0,0,1,0-.34c.06-2.06-.32-4.11-.26-6.19.08-2.59,0-5.19,0-7.79,0-2,.23-4,.42-5.94.11-1.19.09-2.39.24-3.59.26-1.92.5-3.85.81-5.77.46-2.81,1-5.59,1.72-8.35.5-1.95,1-3.92,1.64-5.83s1.14-3.58,1.73-5.36c.82-2.46,1.84-4.83,2.88-7.21,1.28-3,2.72-5.85,4.23-8.7S24,57.77,25.7,55.13c1.58-2.42,3.16-4.85,4.94-7.11,1.34-1.71,2.62-3.46,4-5.12q4.32-5.07,9.09-9.7C45.31,31.72,47,30.39,48.59,29s3.09-2.5,4.59-3.81c.81-.71,1.77-1.26,2.64-1.91A121.48,121.48,0,0,1,67.17,16,113.81,113.81,0,0,1,78.9,10.21C81.55,9.06,84.23,8,87,7.07,90.56,5.9,94.2,4.84,97.9,4c2.95-.68,5.92-1.28,8.91-1.73,2-.31,4.07-.58,6.12-.77,2.81-.25,5.61-.37,8.42-.47a32.35,32.35,0,0,1,3.93-.15c2.14.18,4.28.11,6.41.22,2.47.14,4.93.36,7.37.69,2.63.35,5.25.79,7.86,1.23a117.77,117.77,0,0,1,11.89,2.91,74.48,74.48,0,0,1,8.28,2.89c1.95.8,3.91,1.55,5.83,2.4,2.19,1,4.33,2.06,6.47,3.15,1.87.94,3.65,2.05,5.48,3.07,1.66.94,3.25,2,4.84,3.09s3,2.06,4.51,3.16c2.25,1.67,4.42,3.45,6.57,5.27,1.78,1.51,3.4,3.19,5.17,4.68,2.2,1.86,4,4.11,6,6.13a70,70,0,0,1,5.12,6.12c2.24,2.82,4.33,5.75,6.31,8.75,1.67,2.54,3.2,5.16,4.64,7.83.91,1.69,1.81,3.39,2.63,5.12,1,2.11,1.89,4.26,2.82,6.39s1.75,4.32,2.48,6.53c1,2.94,1.86,5.92,2.63,8.94.66,2.62,1.26,5.25,1.69,7.9.38,2.35.82,4.71,1.05,7.1.21,2.15.23,4.33.62,6.47a1.69,1.69,0,0,1,0,.23c0,3.45.52,6.92.18,10.36-.2,2,0,4-.36,5.95-.21,1.16-.1,2.39-.24,3.58-.17,1.53-.4,3-.58,4.56-.3,2.42-.8,4.8-1.28,7.18-.4,2-.94,3.93-1.43,5.89a108.17,108.17,0,0,1-4.31,13c-.84,2.17-1.81,4.29-2.78,6.41-1.55,3.39-3.34,6.64-5.21,9.85a101.38,101.38,0,0,1-6.66,10l-4.07,5.37c-.48.63-1.06,1.16-1.55,1.79a30.48,30.48,0,0,1-2.66,2.91c-1.21,1.19-2.2,2.57-3.46,3.71-2.61,2.36-5.19,4.77-7.88,7.06a109.41,109.41,0,0,1-9.8,7.36,76.19,76.19,0,0,1-7.59,4.64c-1.73.9-3.4,1.92-5.15,2.77-3.92,1.91-7.91,3.65-12,5.18a124.83,124.83,0,0,1-14.87,4.4,89.44,89.44,0,0,1-9.61,1.69c-2.16.26-4.31.5-6.47.69A85,85,0,0,1,125.1,236ZM28.48,100.78c-.21,1.37-.42,2.75-.61,4.13a97.84,97.84,0,0,0,2,37.22A96.91,96.91,0,0,0,43.54,173a2.5,2.5,0,0,1,.33,2.22c-2,7-3.87,14-5.8,21.08q-1.73,6.26-3.44,12.52c-.1.37-.33.76-.11,1.22l1-.23,20.29-5.34c4.65-1.23,9.3-2.42,13.94-3.69a3.39,3.39,0,0,1,2.94.45,96.86,96.86,0,0,0,14.55,7.54,95.68,95.68,0,0,0,17,5.24,98.29,98.29,0,0,0,32.81,1.36,94.31,94.31,0,0,0,24.49-6.52,80.63,80.63,0,0,0,9.45-4.46c2.43-1.39,4.82-2.85,7.2-4.35,1.65-1.05,3.19-2.21,4.77-3.34a83,83,0,0,0,9.2-7.76,101.14,101.14,0,0,0,7-7.47A83.6,83.6,0,0,0,207,170.88c1.18-1.94,2.37-3.86,3.46-5.86.71-1.32,1.43-2.62,2.06-4a41.29,41.29,0,0,0,2-4.62c.12-.39.27-.75.41-1.13.73-2,1.68-3.86,2.34-5.86A97.36,97.36,0,0,0,222.14,112a96.34,96.34,0,0,0-16.27-47.91A98.8,98.8,0,0,0,182.26,39.5c-2.5-1.85-5.11-3.54-7.78-5.13A95.84,95.84,0,0,0,149.77,24a96.92,96.92,0,0,0-21.41-3.18,100.8,100.8,0,0,0-12.53.34A96.93,96.93,0,0,0,66.17,40.23c-1.29,1-2.57,2-3.85,3-.5-.07-.77.14-.79.65A4.18,4.18,0,0,1,60.23,45a.6.6,0,0,0-.73.66,18.82,18.82,0,0,1-2.23,2A1.22,1.22,0,0,0,56.1,48.8,4.12,4.12,0,0,1,55,49.92a1.63,1.63,0,0,0-1.34,1.41A1.79,1.79,0,0,1,53,52c-.63-.06-.78.32-.77.84a19.13,19.13,0,0,1-2,2.29c-.34,0-.47.2-.43.52a1.93,1.93,0,0,1-.72.83.61.61,0,0,0-.63.78.4.4,0,0,1-.27.35c-.33,0-.46.2-.42.52a.43.43,0,0,1-.28.38c-1.3.12-1.35.18-1.31,1.47a1.8,1.8,0,0,0,0,.22.41.41,0,0,1-.26.36c-.65.26-1.59.17-1.51,1.31,0,.21-.31.4-.58.47s-.48,0-.5.32a1.63,1.63,0,0,0,.75.46,3.25,3.25,0,0,1-.71,1c-.32,0-.41.24-.36.53a.12.12,0,0,1-.08.14c-.68.15-.79.67-.82,1.24a1.5,1.5,0,0,1-.51.8c-.37,0-.45.27-.37.6a2.1,2.1,0,0,1-.56,1,.94.94,0,0,0-.79,1.28l-.14.3c-.33,0-.39.27-.34.56a2.6,2.6,0,0,1-.56,1c-.63.43-.74.62-.63,1.13l-1.59,3.16c-.28,0-.54.11-.22.45A5.13,5.13,0,0,1,35.67,78c-.35.07-.38.31-.3.61a1.12,1.12,0,0,1-.31.75c-.94.16-.61.87-.63,1.44l-.13.36c-.69.39-.68,1.08-.74,1.74a.74.74,0,0,1-.16.52.57.57,0,0,0-.55.47c-.05.46-.36.84-.4,1.26-.08.64-.59,1.19-.37,1.88a1.76,1.76,0,0,1-.3.91c-.26.08-.42.19-.15.45a2,2,0,0,1-.28.91c-.47.27-.76.59-.37,1.13a.56.56,0,0,1-.12.45c-.26.09-.4.21-.13.45a1.74,1.74,0,0,1-.26.91c-.43.12-.47.35-.19.67a.59.59,0,0,1-.12.46c-.33.31-.59.65-.3,1.13a2.44,2.44,0,0,1-.27,1.13c-.71.29-.73.38-.22.9a.56.56,0,0,1-.1.45c-.27.1-.38.23-.11.46a.88.88,0,0,1-.14.67c-.25.11-.36.24-.1.45a.61.61,0,0,1-.08.46c-.39.15-.41.38-.14.67a1,1,0,0,1-.13.69C28.32,100.43,28.21,100.57,28.48,100.78Zm9.41-29.35c-.15,0-.26.09-.21.21a.27.27,0,0,0,.22.16c.15,0,.27-.08.21-.25S38,71.46,37.89,71.43Z" transform="translate(-6.37 -0.85)"/><path class="cls-2" d="M45.93,60.55a13.18,13.18,0,0,1-1.84,2.56,1.63,1.63,0,0,1-.75-.46c0-.34.3-.27.5-.32s.6-.26.58-.47C44.34,60.72,45.28,60.81,45.93,60.55Z" transform="translate(-6.37 -0.85)"/><path class="cls-2" d="M33.4,83.37A22.91,22.91,0,0,1,32.08,87c-.22-.69.29-1.24.37-1.88,0-.42.35-.8.4-1.26A.57.57,0,0,1,33.4,83.37Z" transform="translate(-6.37 -0.85)"/><path class="cls-2" d="M47.48,58.5a6.43,6.43,0,0,1-1.29,1.69,1.8,1.8,0,0,1,0-.22C46.13,58.68,46.18,58.62,47.48,58.5Z" transform="translate(-6.37 -0.85)"/><path class="cls-2" d="M55,49.92a4.11,4.11,0,0,1-1.34,1.41A1.63,1.63,0,0,1,55,49.92Z" transform="translate(-6.37 -0.85)"/><path class="cls-2" d="M57.27,47.68A2.81,2.81,0,0,1,56.1,48.8,1.22,1.22,0,0,1,57.27,47.68Z" transform="translate(-6.37 -0.85)"/><path class="cls-2" d="M35.06,79.31a2.8,2.8,0,0,1-.63,1.44C34.45,80.18,34.12,79.47,35.06,79.31Z" transform="translate(-6.37 -0.85)"/><path class="cls-2" d="M34.3,81.11a4.09,4.09,0,0,1-.74,1.74C33.62,82.19,33.61,81.5,34.3,81.11Z" transform="translate(-6.37 -0.85)"/><path class="cls-2" d="M40.68,68.45a2.67,2.67,0,0,1-.79,1.28A.94.94,0,0,1,40.68,68.45Z" transform="translate(-6.37 -0.85)"/><path class="cls-2" d="M42.94,64.83a2.61,2.61,0,0,1-.82,1.24C42.15,65.5,42.26,65,42.94,64.83Z" transform="translate(-6.37 -0.85)"/><path class="cls-2" d="M38.85,71.62a1.94,1.94,0,0,1-.63,1.13C38.11,72.24,38.22,72.05,38.85,71.62Z" transform="translate(-6.37 -0.85)"/><path class="cls-2" d="M31.35,89.25A2.08,2.08,0,0,1,31,90.38C30.59,89.84,30.88,89.52,31.35,89.25Z" transform="translate(-6.37 -0.85)"/><path class="cls-2" d="M29.59,95.58a1.12,1.12,0,0,1-.22.9C28.86,96,28.88,95.87,29.59,95.58Z" transform="translate(-6.37 -0.85)"/><path class="cls-2" d="M30.16,93.32a1.8,1.8,0,0,1-.3,1.13C29.57,94,29.83,93.63,30.16,93.32Z" transform="translate(-6.37 -0.85)"/><path class="cls-2" d="M53,52a1.84,1.84,0,0,1-.77.84C52.24,52.31,52.39,51.93,53,52Z" transform="translate(-6.37 -0.85)"/><path class="cls-2" d="M62.32,43.18a1.23,1.23,0,0,1-.79.65C61.55,43.32,61.82,43.11,62.32,43.18Z" transform="translate(-6.37 -0.85)"/><path class="cls-2" d="M60.23,45a1.22,1.22,0,0,1-.73.66A.6.6,0,0,1,60.23,45Z" transform="translate(-6.37 -0.85)"/><path class="cls-2" d="M49.08,56.47a1.18,1.18,0,0,1-.63.78A.61.61,0,0,1,49.08,56.47Z" transform="translate(-6.37 -0.85)"/><path class="cls-2" d="M30.47,92.19a.69.69,0,0,1-.19.67C30,92.54,30,92.31,30.47,92.19Z" transform="translate(-6.37 -0.85)"/><path class="cls-2" d="M28.84,99a.73.73,0,0,1-.14.67C28.43,99.35,28.45,99.12,28.84,99Z" transform="translate(-6.37 -0.85)"/><path class="cls-2" d="M37.89,71.43c.06,0,.2,0,.22.12s-.06.26-.21.25a.27.27,0,0,1-.22-.16C37.63,71.52,37.74,71.47,37.89,71.43Z" transform="translate(-6.37 -0.85)"/><path class="cls-2" d="M50.23,55.12a.69.69,0,0,1-.43.52C49.76,55.32,49.89,55.13,50.23,55.12Z" transform="translate(-6.37 -0.85)"/><path class="cls-2" d="M48.18,57.6a.62.62,0,0,1-.42.52C47.72,57.8,47.85,57.62,48.18,57.6Z" transform="translate(-6.37 -0.85)"/><path class="cls-2" d="M43.38,64.16a.62.62,0,0,1-.36.53C43,64.4,43.06,64.2,43.38,64.16Z" transform="translate(-6.37 -0.85)"/><path class="cls-2" d="M41.61,66.87a.7.7,0,0,1-.37.6C41.16,67.14,41.24,66.91,41.61,66.87Z" transform="translate(-6.37 -0.85)"/><path class="cls-2" d="M36.63,75.91a.45.45,0,0,1-.22.45C36.09,76,36.35,76,36.63,75.91Z" transform="translate(-6.37 -0.85)"/><path class="cls-2" d="M35.67,78a.68.68,0,0,1-.3.61C35.29,78.26,35.32,78,35.67,78Z" transform="translate(-6.37 -0.85)"/><path class="cls-2" d="M31.78,87.89a.43.43,0,0,1-.15.45C31.36,88.08,31.52,88,31.78,87.89Z" transform="translate(-6.37 -0.85)"/><path class="cls-2" d="M30.86,90.83a.43.43,0,0,1-.13.45C30.46,91,30.6,90.92,30.86,90.83Z" transform="translate(-6.37 -0.85)"/><path class="cls-2" d="M29.27,96.93a.4.4,0,0,1-.11.46C28.89,97.16,29,97,29.27,96.93Z" transform="translate(-6.37 -0.85)"/><path class="cls-2" d="M29,98.06a.4.4,0,0,1-.1.45C28.66,98.3,28.77,98.17,29,98.06Z" transform="translate(-6.37 -0.85)"/><path class="cls-2" d="M28.57,100.33a.39.39,0,0,1-.09.45C28.21,100.57,28.32,100.43,28.57,100.33Z" transform="translate(-6.37 -0.85)"/><path class="cls-2" d="M39.75,70a.63.63,0,0,1-.34.56C39.36,70.3,39.42,70.08,39.75,70Z" transform="translate(-6.37 -0.85)"/><path class="cls-1" d="M65,91.73A33.17,33.17,0,0,1,69.1,75.62a30.79,30.79,0,0,1,4.55-6.12,21.93,21.93,0,0,1,3.56-3.45,10.4,10.4,0,0,1,6.15-1.91c1.81,0,3.62.06,5.43,0a5.9,5.9,0,0,1,5.34,3,39.3,39.3,0,0,1,2.58,5.5c1.59,3.71,3.05,7.47,4.59,11.2,1.06,2.56,2.12,5.13,3.24,7.66a5.6,5.6,0,0,1-.12,5,25.22,25.22,0,0,1-3.63,5.56c-1.43,1.65-2.8,3.35-4.31,4.94a3.72,3.72,0,0,0-.63,5,84.06,84.06,0,0,0,6.4,9.58A77.35,77.35,0,0,0,121.9,140a76.39,76.39,0,0,0,11.15,5.94l3,1.34c.45.2.9.4,1.36.56a4.09,4.09,0,0,0,4.79-1.28c2.34-2.71,4.64-5.45,6.87-8.25.91-1.15,1.79-2.32,2.63-3.53a4,4,0,0,1,5-1.79,36.88,36.88,0,0,1,5.63,2.33c6.21,2.9,12.34,6,18.5,9a22.46,22.46,0,0,1,2,1.12,2.88,2.88,0,0,1,1.4,2.32,22.48,22.48,0,0,1-.14,4.85,36.67,36.67,0,0,1-2.16,8.37,10.22,10.22,0,0,1-2,3.23,30.66,30.66,0,0,1-28.61,10.22,86.52,86.52,0,0,1-14.07-3.72,134.79,134.79,0,0,1-15.74-6.23,94.47,94.47,0,0,1-20.06-13.59,128.2,128.2,0,0,1-11.68-11.63A115.05,115.05,0,0,1,82,129.79c-4-5.55-8.12-11-11.34-17.1a43,43,0,0,1-2.49-5.23C66.29,102.37,64.77,97.17,65,91.73Z" transform="translate(-6.37 -0.85)"/></svg>